<svg width="199" height="180" viewBox="0 0 199 180" fill="none" xmlns="http://www.w3.org/2000/svg">
<path d="M0 47.13H9.2V37.75H47.13V28.18H56.65V18.68H66.08V9.39001H75.46V0H85.08V9.19H94.49V170.34H85.21V179.71H75.65V170.44H66.14V160.93H56.67V151.58H47.22V142.08H9.34V132.6H0V47.13Z" fill="black"/>
<path d="M132.51 18.9602V28.1002H141.84V47.0402H151.36V65.9902H160.75V47.2702H170.21V28.3402H179.66V18.9402H189.27V28.1202H198.65V47.2502H189.41V66.2102H179.91V85.1402H170.55V103.95H179.88V122.99H189.29V141.86H198.65V160.82H189.4V170.17H179.86V160.99H170.33V142.04H160.81V123.27H151.5V141.92H142.05V160.84H132.57V170.22H123.04V161H113.72V142.03H122.89V123.06H132.33V104.13H141.66V85.3202H132.51V66.3402H123V47.3502H113.64V28.3102H122.88V18.9602H132.5H132.51Z" fill="black"/>
</svg>
